PathFileType	4	(X/Y/Z)	pose_F01_0-92.trc
DataRate	CameraRate	NumFrames	NumMarkers	Units	OrigDataRate	OrigDataStartFrame	OrigNumFrames
30	30	8	21	m	30	65	92
Frame#	Time	CHip			RHip			RKnee			RAnkle			RBigToe			RSmallToe			RHeel			LHip			LKnee			LAnkle			LBigToe			LSmallToe			LHeel			Neck			Nose			RShoulder			RElbow			RWrist			LShoulder			LElbow			LWrist			
		X1	Y1	Z1	X2	Y2	Z2	X3	Y3	Z3	X4	Y4	Z4	X5	Y5	Z5	X6	Y6	Z6	X7	Y7	Z7	X8	Y8	Z8	X9	Y9	Z9	X10	Y10	Z10	X11	Y11	Z11	X12	Y12	Z12	X13	Y13	Z13	X14	Y14	Z14	X15	Y15	Z15	X16	Y16	Z16	X17	Y17	Z17	X18	Y18	Z18	X19	Y19	Z19	X20	Y20	Z20	X21	Y21	Z21	
65	2.1666666666666665	-0.32245047476808397	1.8902735746615547	-0.5751471167403991	-0.33915492091864624	1.8849772983687856	-0.5231127971178269	-0.2845250009480527	1.740922130104861	-0.49704934337924445													-0.30615591653290153	1.8952339855192797	-0.6219449175832849	-0.28289322482189816	1.759293131944879	-0.6307304472202228	-0.25234783649398307	1.6340594394498118	-0.698306334909448	-0.24319287828254443	1.5869225018089845	-0.6736898616535908	-0.23590275723623388	1.5967784196698764	-0.7117394454873063	-0.2550621309209588	1.6259239649930881	-0.7035568654229565	-0.32899174577910834	2.03709007269027	-0.5763412795539617	-0.3179805631240636	2.0855130923559693	-0.5473813636623515	-0.3501588933993897	2.028558144460012	-0.514952389953032	-1.589694115175099	1.8540348734711476	0.7905799058582027	-0.3529978606414393	1.8841336983377484	-0.4598568306314578	-0.30332257628891096	2.047594234477015	-0.6367449016851147	-0.27217806092501423	2.030208026649044	-0.6382257584945998	-0.27032871575647766	1.9635479122392459	-0.5841957603104725
66	2.2	-0.3204731491462833	1.8914283344248586	-0.5775194647003371	-0.33791620890952945	1.8862130369911756	-0.5204734046913594	-0.2845250009480527	1.740922130104861	-0.49704934337924445													-0.30701856739672073	1.8972679869288305	-0.6254381961502754	-0.28289322482189816	1.759293131944879	-0.6307304472202228	-0.25234783649398307	1.6340594394498118	-0.698306334909448	-0.24319287828254443	1.5869225018089845	-0.6736898616535908	-0.23590275723623388	1.5967784196698764	-0.7117394454873063	-0.2550621309209588	1.6259239649930881	-0.7035568654229565	-0.32893273829507375	2.036428186798611	-0.5757467497882742	-0.3148586355707944	2.088575702842559	-0.5547740382535672	-0.34890198437180686	2.0261533884203318	-0.5108763569677852	-1.5951517535727227	1.853328080075814	0.8028344499390303	-0.3560958203799131	1.878885469277583	-0.45211235851193793	-0.3048869227994772	2.0526265963049553	-0.6422823402134121	-0.2724570717132377	2.030486443228236	-0.6421954866823752	-0.2687746702685615	1.9513224001467269	-0.6106108233548933
67	2.2333333333333334	-0.31870558294710954	1.8909549418010358	-0.5798622632822423	-0.33321125504334403	1.885196140068547	-0.5215836762404723	-0.2845250009480527	1.740922130104861	-0.49704934337924445													-0.3029897685435452	1.8951683346998647	-0.6382205700896079	-0.28289322482189816	1.759293131944879	-0.6307304472202228	-0.25234783649398307	1.6340594394498118	-0.698306334909448	-0.24319287828254443	1.5869225018089845	-0.6736898616535908	-0.23590275723623388	1.5967784196698764	-0.7117394454873063	-0.2550621309209588	1.6259239649930881	-0.7035568654229565	-0.3268901923111608	2.035435146229419	-0.5779685012269272	-0.3137430994088076	2.0912904198346327	-0.5603918230725214	-0.3460668780906652	2.026736346462299	-0.5107347334262	-1.6069383931596928	1.8555813321785297	0.8285027476358808	-0.3573117413129481	1.8813814795701764	-0.44705435318393444	-0.30468308191219007	2.048298462702268	-0.6500265091317351	-0.6110687666686196	1.9769701616369035	-0.330947656574955	-0.26722062478064534	1.9390968880542079	-0.637025886399314
68	2.2666666666666666	-0.31559699356703347	1.887484766701143	-0.5866987730110993	-0.3281487031628968	1.8828222584562422	-0.5304228160044124	-0.2845250009480527	1.740922130104861	-0.49704934337924445													-0.29952823448571214	1.8906908814614067	-0.6450185317876063	-0.28289322482189816	1.759293131944879	-0.6307304472202228	-0.25234783649398307	1.6340594394498118	-0.698306334909448	-0.24319287828254443	1.5869225018089845	-0.6736898616535908	-0.23590275723623388	1.5967784196698764	-0.7117394454873063	-0.2550621309209588	1.6259239649930881	-0.7035568654229565	-0.32382903944890057	2.0357130589800927	-0.5853082035832475	-0.31060078503948857	2.0937630936061997	-0.568284198968201	-0.34203453369964015	2.025414838158419	-0.5144578966738284	-1.6114194503099217	1.8561980540893182	0.845665466274846	-0.35907769001090795	1.8820346629721751	-0.4449825350246805	-0.3005287691415413	2.0466573425959975	-0.6626304553788509	-0.9496804616240015	1.9234538800455712	-0.019699826467534765	-0.2656665792927292	1.926871375961689	-0.6634409494437348
69	2.3	-0.31291716475033654	1.8865229672377966	-0.5889607373862425	-0.3255906791004975	1.8843907914259022	-0.5327384878089098	-0.2845250009480527	1.740922130104861	-0.49704934337924445													-0.29512614710846097	1.8863955061838311	-0.6531791296270045	-0.28289322482189816	1.759293131944879	-0.6307304472202228	-0.263070323074273	1.6402482582301843	-0.7222865923490269	-0.24319287828254443	1.5869225018089845	-0.6736898616535908	-0.23590275723623388	1.5967784196698764	-0.7117394454873063	-0.2550621309209588	1.6259239649930881	-0.7035568654229565	-0.31558578982341395	2.0360333531185257	-0.6021541413148777	-0.30550165729157674	2.096996570944802	-0.5868646533207473	-0.33610779017238346	2.028226868560087	-0.5218370420532064	-0.3477397597172566	1.9493232512216208	-0.4898963423793544	-0.3538528902875732	1.8789779104328608	-0.4540153778479317	-0.2956255791235852	2.045603479243066	-0.6830104682806608	-1.2882921565793835	1.8699375984542386	0.29154800363988553	-0.26411253380481303	1.91464586386917	-0.6898560124881556
70	2.3333333333333335	-0.30663650965863737	1.8800107313800016	-0.6031775781499435	-0.32172539166007735	1.8763034420742426	-0.5446253917930419	-0.2845250009480527	1.740922130104861	-0.49704934337924445													-0.2907240597312098	1.8821001309062555	-0.6613397274664028	-0.28289322482189816	1.759293131944879	-0.6307304472202228	-0.263070323074273	1.6402482582301843	-0.7222865923490269	-0.24319287828254443	1.5869225018089845	-0.6736898616535908	-0.23590275723623388	1.5967784196698764	-0.7117394454873063	-0.2550621309209588	1.6259239649930881	-0.7035568654229565	-0.3133057986266137	2.0362061990443148	-0.6125314358506622	-0.29916812235071644	2.099624312709777	-0.6018922908746168	-0.33212947975562274	2.0282816544735383	-0.526096288046847	-0.3444903285979545	1.941685382329841	-0.5020977758153417	-0.34698197334070874	1.8650882918105136	-0.4695023479319089	-0.2912849851156111	2.0413914083952616	-0.695637111624227	-0.27173651219951206	1.9662035428695877	-0.7390301640406916	-0.26255848831689693	1.9024203517766511	-0.7162710755325764
71	2.3666666666666667	-0.3021211046634734	1.8782410351171142	-0.6243514541836664	-0.3133771808653904	1.8751587042916673	-0.5619580652059232	-0.2845250009480527	1.740922130104861	-0.49704934337924445													-0.28558416825854405	1.882262552297924	-0.6910012905685576	-0.28289322482189816	1.759293131944879	-0.6307304472202228	-0.263070323074273	1.6402482582301843	-0.7222865923490269	-0.24319287828254443	1.5869225018089845	-0.6736898616535908	-0.23590275723623388	1.5967784196698764	-0.7117394454873063	-0.2550621309209588	1.6259239649930881	-0.7035568654229565	-0.304791644645097	2.0358519343595294	-0.6297812141605816	-0.2905156922818914	2.1031827874683846	-0.6190428155843728	-0.32394915870791147	2.029755405261223	-0.5428521733160169	-0.33451553621724645	1.9419616766454013	-0.5214678935088984	-0.3344874250645861	1.86751424375908	-0.5052507160289146	-0.2826768589419822	2.043160789629106	-0.7235778480989856	-0.2747031356618331	1.962742556473234	-0.7475889952828547	-0.2610044428289808	1.8901948396841322	-0.7426861385769972
72	2.4	-0.2918285399750999	1.8831746844185784	-0.6442736039951773	-0.30452415539276295	1.8763863659529656	-0.5764352250969335	-0.2845250009480527	1.740922130104861	-0.49704934337924445													-0.27578597260004384	1.885387828244102	-0.7057814601439208	-0.28289322482189816	1.759293131944879	-0.6307304472202228	-0.263070323074273	1.6402482582301843	-0.7222865923490269	-0.24319287828254443	1.5869225018089845	-0.6736898616535908	-0.23590275723623388	1.5967784196698764	-0.7117394454873063	-0.2550621309209588	1.6259239649930881	-0.7035568654229565	-0.2970317622751464	2.038890508448596	-0.6498523850946207	-0.2806698161798939	2.1100935779219734	-0.6421408123561231	-0.31683116876930856	2.032873772817896	-0.5554554387464633	-1.5437431170341647	1.85370240314226	0.744212927348003	-0.3179350264939679	1.8695129679610158	-0.5227989815217093	-0.2742809611751608	2.046005014579588	-0.744485323872847	-0.27324095734919596	1.9611863181732256	-0.761846210628316	-0.2594503973410646	1.8779693275916132	-0.7691012016214179
